<svg width="24" height="24" viewBox="0 0 24 24" fill="none" xmlns="http://www.w3.org/2000/svg">
<path d="M23.1242 9.64979H22.1837V9.59999H11.6756V14.4H18.2741C17.3114 17.1942 14.7247 19.2 11.6756 19.2C7.80691 19.2 4.67025 15.9762 4.67025 12C4.67025 8.0238 7.80691 4.8 11.6756 4.8C13.4614 4.8 15.0861 5.4924 16.3231 6.6234L19.6256 3.2292C17.5403 1.2318 14.751 0 11.6756 0C5.22776 0 0 5.373 0 12C0 18.627 5.22776 24 11.6756 24C18.1235 24 23.3512 18.627 23.3512 12C23.3512 11.1954 23.2707 10.41 23.1242 9.64979Z" fill="#FFC107"/>
<path d="M1.34644 6.4146L5.18246 9.30599C6.22043 6.6648 8.73419 4.8 11.6759 4.8C13.4616 4.8 15.0863 5.4924 16.3233 6.6234L19.6258 3.2292C17.5405 1.2318 14.7512 0 11.6759 0C7.19125 0 3.3021 2.6022 1.34644 6.4146Z" fill="#FF3D00"/>
<path d="M11.6755 24C14.6913 24 17.4316 22.8138 19.5034 20.8848L15.8898 17.742C14.7176 18.6546 13.2604 19.2 11.6755 19.2C8.63865 19.2 6.06008 17.2098 5.08867 14.4324L1.28125 17.4474C3.21357 21.3336 7.13774 24 11.6755 24Z" fill="#4CAF50"/>
<path d="M23.1241 9.6499H22.1836V9.6001H11.6755V14.4001H18.274C17.8117 15.7423 16.9716 16.8997 15.8881 17.7427L15.8899 17.7415L19.5035 20.8843C19.2478 21.1231 23.3512 18.0001 23.3512 12.0001C23.3512 11.1955 23.2706 10.4101 23.1241 9.6499Z" fill="#1976D2"/>
</svg>
