<svg width="178" height="214" viewBox="0 0 178 214" fill="none" xmlns="http://www.w3.org/2000/svg">
<circle cx="89" cy="125" r="89" fill="#BBEA70"/>
<path d="M151.913 125.875V0H151.896L123.138 28.6667V75.9085L122.519 125.183V133.222C120.513 150.441 105.802 163.853 88.0001 163.853C68.8331 163.853 53.2397 148.309 53.2397 129.203C53.2397 110.097 68.8331 94.5525 88.0001 94.5525C98.0162 94.5525 107.051 98.8028 113.4 105.583V70.6546C105.609 67.2815 97.0212 65.4054 88.0001 65.4054C52.7103 65.4054 24 94.0248 24 129.203C24 164.381 52.7103 193 88.0001 193C123.29 193 152 164.381 152 129.203C152 128.087 151.971 126.977 151.913 125.875Z" fill="white"/>
</svg>
