<svg width="86" height="93" viewBox="0 0 86 93" fill="none" xmlns="http://www.w3.org/2000/svg">
<g filter="url(#filter0_d_1110_1745)">
<path d="M74.9121 10.1786C71.4 11.9297 68.1214 14.1131 65.1527 16.6778C61.984 19.4114 59.2601 22.4868 57.5354 26.3617C57.4328 26.6009 57.0837 26.9494 57.1385 27.0451C58.0076 28.2001 59.4654 28.4119 60.6494 29.0065C61.4775 29.4439 61.498 28.4666 61.7513 27.9541C63.8044 23.7853 66.9663 20.6894 70.9769 17.8806C70.9153 25.5348 69.8202 32.4167 64.0713 37.6995C63.387 38.335 63.0105 38.2735 62.2988 37.7541C54.045 31.7538 44.9905 29.6216 34.9642 32.2322C31.016 33.2676 27.3127 35.0748 24.0687 37.5491C23.1106 38.2804 22.5562 38.3145 21.6391 37.4193C17.6491 33.4828 15.7739 28.6648 15.3496 23.1907C15.087 21.4702 15.0204 19.7255 15.1511 17.99C17.2692 19.3251 19.1825 20.9595 20.8316 22.8422C22.378 24.4314 23.5945 26.3104 24.4109 28.3709C24.6025 28.8972 24.8763 29.2799 25.5059 28.9928C26.4641 28.5691 27.4222 28.1454 28.3598 27.6807C28.9621 27.3732 28.5446 26.9426 28.4214 26.5531C27.5796 23.8194 25.8208 21.7145 23.9592 19.6711C20.462 15.8304 16.2256 12.9532 11.7223 10.4383C11.4844 10.3411 11.2365 10.2701 10.9832 10.2264C10.4961 13.6994 10.4042 17.2163 10.7094 20.7099C11.0927 26.1772 12.0303 31.5625 14.8842 36.4283C16.4994 39.162 18.9905 41.0003 21.2832 43.0916C26.2245 47.6636 31.1727 52.2356 34.6494 58.1265C37.6874 63.317 39.2182 69.2495 39.0706 75.2596C39.0706 75.6013 39.2759 76.1275 38.7215 76.2232C38.1672 76.3189 38.1535 75.7585 38.0782 75.4236C36.1687 66.963 30.3309 61.2156 24.2809 55.6253C20.5852 52.2082 16.8073 48.8937 13.3306 45.2511C7.64334 39.326 5.2206 32.0545 4.34458 24.1338C3.53016 16.7188 4.23508 9.42001 5.66545 2.14854C5.8913 1.02091 6.29509 0.781721 7.30799 1.1986C15.637 4.69082 23.3775 9.07147 29.448 15.9397C31.5775 18.2723 33.2843 20.9572 34.492 23.8741C34.8889 24.865 35.2927 25.4254 36.6478 25.1179C41.0058 24.2152 45.5043 24.2292 49.8566 25.1589C50.5889 25.3024 50.9379 25.1999 51.2253 24.4755C55.5712 14.4431 63.8113 8.51791 73.1258 3.73405C74.8916 2.83195 76.7463 2.08703 78.5531 1.25327C79.518 0.809058 80.0861 0.781721 80.3462 2.1212C81.8679 9.34453 82.329 16.7505 81.7149 24.1065C80.7568 33.8997 76.7599 42.0869 69.3548 48.7092C65.0227 52.5636 60.6083 56.3565 56.6389 60.5937C52.6694 64.8308 49.2954 69.478 47.9882 75.2596C47.8992 75.6423 47.9334 76.2984 47.3038 76.2027C46.6741 76.107 46.9616 75.4783 46.9547 75.0888C46.8042 65.357 50.6847 57.3201 57.2753 50.3562C60.1547 47.232 63.2414 44.3049 66.5146 41.5949C70.9974 38.007 73.2353 33.2368 74.3851 27.7832C75.3504 22.8335 75.6747 17.7805 75.3501 12.7482C75.3929 11.8701 75.2434 10.9932 74.9121 10.1786Z" fill="white"/>
</g>
<g filter="url(#filter1_d_1110_1745)">
<path d="M12.3962 48.8389C13.2586 53.6227 16.3383 56.5136 19.9245 59.0012C27.5829 64.3728 33.6123 71.0907 37.3765 79.7084C37.5028 79.9837 37.6928 80.2252 37.9307 80.4129C38.1687 80.6006 38.4478 80.7292 38.7453 80.7882C41.3105 81.5461 44.0182 81.6912 46.65 81.2119C47.4335 81.1274 48.1781 80.827 48.8005 80.3443C49.4229 79.8615 49.8987 79.2155 50.1746 78.4783C53.2346 71.7298 57.9408 65.8555 63.8624 61.3931L65.5802 60.0809C69.4813 57.1354 73.5055 54.2993 74.4773 48.9072C78.0361 52.4131 77.6118 58.8235 73.7929 62.1312C71.3047 64.1684 68.6721 66.023 65.9156 67.6804C61.3986 70.5576 56.7242 73.5168 54.3562 78.4168C52.3031 82.6471 48.9974 83.5834 45.028 83.9524C42.6449 84.1564 40.2445 83.9248 37.9445 83.269C35.9872 82.7223 34.4473 81.8612 33.4618 79.7905C31.3196 75.2595 27.5692 72.0953 23.4902 69.3138C20.0683 66.9697 16.4136 64.94 13.2243 62.2132C12.2854 61.3926 11.5187 60.3944 10.9683 59.2762C10.418 58.158 10.095 56.942 10.018 55.6984C9.941 54.4549 10.1115 53.2084 10.5197 52.031C10.9279 50.8536 11.5657 49.7687 12.3962 48.8389Z" fill="white"/>
</g>
<defs>
<filter id="filter0_d_1110_1745" x="0" y="0.979492" width="85.9766" height="83.2549" filterUnits="userSpaceOnUse" color-interpolation-filters="sRGB">
<feFlood flood-opacity="0" result="BackgroundImageFix"/>
<feColorMatrix in="SourceAlpha" type="matrix" values="0 0 0 0 0 0 0 0 0 0 0 0 0 0 0 0 0 0 127 0" result="hardAlpha"/>
<feOffset dy="4"/>
<feGaussianBlur stdDeviation="2"/>
<feComposite in2="hardAlpha" operator="out"/>
<feColorMatrix type="matrix" values="0 0 0 0 0 0 0 0 0 0 0 0 0 0 0 0 0 0 0.25 0"/>
<feBlend mode="normal" in2="BackgroundImageFix" result="effect1_dropShadow_1110_1745"/>
<feBlend mode="normal" in="SourceGraphic" in2="effect1_dropShadow_1110_1745" result="shape"/>
</filter>
<filter id="filter1_d_1110_1745" x="6" y="48.8389" width="74.918" height="43.1855" filterUnits="userSpaceOnUse" color-interpolation-filters="sRGB">
<feFlood flood-opacity="0" result="BackgroundImageFix"/>
<feColorMatrix in="SourceAlpha" type="matrix" values="0 0 0 0 0 0 0 0 0 0 0 0 0 0 0 0 0 0 127 0" result="hardAlpha"/>
<feOffset dy="4"/>
<feGaussianBlur stdDeviation="2"/>
<feComposite in2="hardAlpha" operator="out"/>
<feColorMatrix type="matrix" values="0 0 0 0 0 0 0 0 0 0 0 0 0 0 0 0 0 0 0.25 0"/>
<feBlend mode="normal" in2="BackgroundImageFix" result="effect1_dropShadow_1110_1745"/>
<feBlend mode="normal" in="SourceGraphic" in2="effect1_dropShadow_1110_1745" result="shape"/>
</filter>
</defs>
</svg>
