<svg width="17" height="22" viewBox="0 0 17 22" fill="none" xmlns="http://www.w3.org/2000/svg">
<mask id="mask0_1110_2268" style="mask-type:luminance" maskUnits="userSpaceOnUse" x="0" y="0" width="17" height="22">
<rect width="16.2" height="21.6" fill="white"/>
</mask>
<g mask="url(#mask0_1110_2268)">
<path fill-rule="evenodd" clip-rule="evenodd" d="M13.4444 11.3349C13.4359 9.78657 14.1363 8.61798 15.5538 7.75735C14.7606 6.62251 13.5625 5.99813 11.9805 5.87579C10.4828 5.75767 8.84594 6.74907 8.24688 6.74907C7.61406 6.74907 6.16281 5.91798 5.02375 5.91798C2.66969 5.95595 0.167969 7.79532 0.167969 11.5374C0.167969 12.6427 0.370469 13.7845 0.775469 14.963C1.31547 16.5113 3.26453 20.3081 5.29797 20.2449C6.36109 20.2195 7.11203 19.4897 8.49578 19.4897C9.83734 19.4897 10.5334 20.2449 11.7189 20.2449C13.7692 20.2153 15.5327 16.7644 16.0473 15.2119C13.2967 13.9167 13.4444 11.415 13.4444 11.3349L13.4444 11.3349ZM11.0577 4.4082C12.2094 3.04133 12.104 1.7968 12.0702 1.34961C11.0535 1.40867 9.87647 2.04148 9.20569 2.82195C8.46741 3.65727 8.03288 4.69086 8.12569 5.85523C9.22678 5.93961 10.2308 5.3743 11.0577 4.4082Z" fill="#071218"/>
</g>
</svg>
