<svg width="25" height="25" viewBox="0 0 25 25" fill="none" xmlns="http://www.w3.org/2000/svg">
<path d="M14.25 2.5C16.25 2.5 17.25 3.51 17.25 5.53V12.58C17.25 14.57 15.84 15.34 14.11 14.3L12.79 13.5C12.49 13.32 12.01 13.32 11.71 13.5L10.39 14.3C8.66 15.34 7.25 14.57 7.25 12.58V5.53C7.25 3.51 8.25 2.5 10.25 2.5H14.25Z" stroke="#0B0C15" stroke-width="1.5" stroke-linecap="round" stroke-linejoin="round"/>
<path d="M7.07 5.48996C3.66 6.05996 2.25 8.15996 2.25 12.4V15.43C2.25 20.48 4.25 22.5 9.25 22.5H15.25C20.25 22.5 22.25 20.48 22.25 15.43V12.4C22.25 8.08996 20.79 5.97996 17.25 5.45996" stroke="#0B0C15" stroke-width="1.5" stroke-linecap="round" stroke-linejoin="round"/>
</svg>
