<svg width="16" height="17" viewBox="0 0 16 17" fill="none" xmlns="http://www.w3.org/2000/svg">
<path d="M15.5229 2.83667C15.3307 2.60597 15.09 2.42042 14.818 2.29321C14.546 2.166 14.2493 2.10024 13.949 2.10061H2.89914L2.87044 1.86072C2.81169 1.36209 2.57204 0.902356 2.1969 0.568665C1.82177 0.234974 1.33723 0.0505266 0.83516 0.050293L0.683437 0.050293C0.502178 0.050293 0.328344 0.122298 0.200174 0.250467C0.0720048 0.378637 0 0.552471 0 0.73373C0 0.914989 0.0720048 1.08882 0.200174 1.21699C0.328344 1.34516 0.502178 1.41717 0.683437 1.41717H0.83516C1.00256 1.41719 1.16412 1.47865 1.28922 1.58988C1.41431 1.70112 1.49423 1.8544 1.51381 2.02064L2.45422 10.0169C2.55185 10.8485 2.95141 11.6153 3.57705 12.1717C4.20269 12.7282 5.01086 13.0356 5.84817 13.0356H12.9853C13.1666 13.0356 13.3404 12.9636 13.4686 12.8354C13.5967 12.7073 13.6687 12.5334 13.6687 12.3522C13.6687 12.1709 13.5967 11.9971 13.4686 11.8689C13.3404 11.7407 13.1666 11.6687 12.9853 11.6687H5.84817C5.42516 11.6675 5.01288 11.5355 4.66783 11.2908C4.32279 11.0461 4.06188 10.7007 3.92088 10.3019H12.0675C12.8686 10.3019 13.6444 10.0204 14.2591 9.50663C14.8739 8.99283 15.2885 8.27936 15.4306 7.49088L15.9671 4.51519C16.0207 4.21995 16.0087 3.91654 15.9319 3.62647C15.8551 3.3364 15.7155 3.06676 15.5229 2.83667ZM14.6256 4.27257L14.0884 7.24825C14.003 7.72188 13.7538 8.15039 13.3843 8.45876C13.0149 8.76713 12.5487 8.93571 12.0675 8.93498H3.70355L3.06043 3.46748H13.949C14.0494 3.46688 14.1486 3.48841 14.2398 3.53053C14.3309 3.57265 14.4117 3.63434 14.4762 3.7112C14.5408 3.78806 14.5877 3.87821 14.6135 3.97523C14.6393 4.07226 14.6434 4.17377 14.6256 4.27257Z" fill="white"/>
<path d="M4.78484 16.453C5.53975 16.453 6.15172 15.841 6.15172 15.0861C6.15172 14.3312 5.53975 13.7192 4.78484 13.7192C4.02994 13.7192 3.41797 14.3312 3.41797 15.0861C3.41797 15.841 4.02994 16.453 4.78484 16.453Z" fill="white"/>
<path d="M11.6169 16.453C12.3718 16.453 12.9837 15.841 12.9837 15.0861C12.9837 14.3312 12.3718 13.7192 11.6169 13.7192C10.862 13.7192 10.25 14.3312 10.25 15.0861C10.25 15.841 10.862 16.453 11.6169 16.453Z" fill="white"/>
</svg>
