<svg width="19" height="18" viewBox="0 0 19 18" fill="none" xmlns="http://www.w3.org/2000/svg">
<path d="M14.2202 8.99709C14.2194 8.82556 14.2863 8.66098 14.4064 8.53969C14.5266 8.4184 14.6905 8.34997 14.8604 8.35084H15.9297C15.7838 7.00203 15.1865 5.74416 14.2365 4.78522C13.2865 3.82625 12.0404 3.2233 10.7043 3.07691V4.16236C10.7051 4.33389 10.6382 4.49934 10.518 4.62063C10.3979 4.74277 10.234 4.81121 10.0641 4.81121C9.89414 4.81121 9.73109 4.74277 9.61094 4.62063C9.49079 4.49934 9.42299 4.33388 9.42385 4.16236V3.09596C8.0825 3.2103 6.82441 3.80198 5.87445 4.76356C4.92359 5.72599 4.34087 6.99678 4.23102 8.35091H5.27457C5.62815 8.35091 5.91479 8.64025 5.91479 8.99717C5.91479 9.35408 5.62815 9.64343 5.27457 9.64343H4.23102C4.34087 10.9992 4.92271 12.271 5.87359 13.2334C6.82446 14.1968 8.08175 14.7893 9.42387 14.9054V13.8321C9.42301 13.6605 9.49081 13.4959 9.61096 13.3738C9.7311 13.2525 9.89417 13.1841 10.0641 13.1841C10.234 13.1841 10.3979 13.2525 10.5181 13.3738C10.6382 13.4959 10.7051 13.6605 10.7043 13.8321V14.9184C12.0405 14.7711 13.2866 14.1682 14.2365 13.2092C15.1866 12.2502 15.7839 10.9924 15.9297 9.64358H14.8604C14.6905 9.64445 14.5266 9.57688 14.4065 9.4556C14.2863 9.33345 14.2194 9.16885 14.2202 8.99733L14.2202 8.99709ZM12.7536 7.19348L10.5188 9.45531V9.45618C10.2657 9.7048 9.86231 9.7048 9.60916 9.45618L8.0215 7.85353C7.77949 7.59799 7.78465 7.19515 8.0318 6.94565C8.27895 6.69616 8.67801 6.69184 8.93031 6.93526L10.064 8.08569L11.8507 6.28208C12.1013 6.03951 12.4987 6.04385 12.7441 6.29161C12.9904 6.53937 12.9939 6.94053 12.7536 7.19348ZM9.97486 17.9997C7.38839 18.0031 4.93307 16.8501 3.2691 14.8508C3.04081 14.5787 3.07429 14.1707 3.34376 13.9394C3.61409 13.709 4.01829 13.7428 4.24657 14.0148C5.24893 15.2285 6.60391 16.0939 8.11959 16.488C9.63513 16.8821 11.2349 16.786 12.6936 16.2125C14.174 15.6927 15.4561 14.7173 16.3573 13.4222C17.2584 12.1279 17.7338 10.58 17.7167 8.99807C17.3193 -0.483479 4.73155 -1.38431 2.63412 7.26377C2.91474 7.13296 3.24773 7.22218 3.42709 7.47687C3.60645 7.73155 3.57984 8.07894 3.3653 8.30332L2.22477 9.45462C2.21276 9.46675 2.20074 9.47888 2.18787 9.48927L2.18615 9.491L2.18444 9.49187H2.18358C1.92869 9.70671 1.55367 9.68938 1.31767 9.45289L0.178857 8.30332C-0.0631598 8.0495 -0.0588537 7.64668 0.187439 7.39806C0.434596 7.14856 0.832794 7.1451 1.08424 7.38939L1.26789 7.57478C3.14732 -3.09967 18.5149 -2.36406 18.9971 8.97124C19.1275 13.9706 14.8495 18.0388 9.97508 17.9997L9.97486 17.9997Z" fill="white"/>
</svg>
