<svg width="22" height="22" viewBox="0 0 22 22" fill="none" xmlns="http://www.w3.org/2000/svg">
<mask id="mask0_1144_1599" style="mask-type:luminance" maskUnits="userSpaceOnUse" x="0" y="0" width="22" height="22">
<rect width="21.6" height="21.6" fill="white"/>
</mask>
<g mask="url(#mask0_1144_1599)">
<path fill-rule="evenodd" clip-rule="evenodd" d="M19.6257 9.03734H18.9008V8.99999H10.8008V12.6H15.8871C15.1451 14.6956 13.1511 16.2 10.8008 16.2C7.81863 16.2 5.40078 13.7821 5.40078 10.8C5.40078 7.81784 7.81863 5.39999 10.8008 5.39999C12.1773 5.39999 13.4297 5.91929 14.3832 6.76754L16.9289 4.22189C15.3215 2.72384 13.1714 1.79999 10.8008 1.79999C5.83053 1.79999 1.80078 5.82974 1.80078 10.8C1.80078 15.7702 5.83053 19.8 10.8008 19.8C15.771 19.8 19.8008 15.7702 19.8008 10.8C19.8008 10.1965 19.7387 9.60749 19.6257 9.03734Z" fill="#FFC107"/>
<path fill-rule="evenodd" clip-rule="evenodd" d="M2.83984 6.61094L5.79679 8.77949C6.59689 6.79859 8.5346 5.39999 10.8021 5.39999C12.1787 5.39999 13.431 5.91929 14.3846 6.76754L16.9302 4.22189C15.3228 2.72384 13.1727 1.79999 10.8021 1.79999C7.34524 1.79999 4.34734 3.75164 2.83984 6.61094Z" fill="#FF3D00"/>
<path fill-rule="evenodd" clip-rule="evenodd" d="M10.7974 19.8003C13.1221 19.8003 15.2344 18.9107 16.8315 17.4639L14.046 15.1068C13.1424 15.7913 12.0192 16.2003 10.7974 16.2003C8.45651 16.2003 6.46886 14.7077 5.72006 12.6246L2.78516 14.8859C4.27466 17.8005 7.29956 19.8003 10.7974 19.8003Z" fill="#4CAF50"/>
<path fill-rule="evenodd" clip-rule="evenodd" d="M19.6257 9.03735H18.9008V9H10.8008V12.6H15.8871C15.5307 13.6067 14.8832 14.4747 14.048 15.1069C14.0484 15.1065 14.0489 15.1065 14.0493 15.1061L16.8348 17.4632C16.6377 17.6423 19.8008 15.3 19.8008 10.8C19.8008 10.1966 19.7387 9.6075 19.6257 9.03735Z" fill="#1976D2"/>
</g>
</svg>
