<svg width="22" height="22" viewBox="0 0 22 22" fill="none" xmlns="http://www.w3.org/2000/svg">
<mask id="mask0_1144_1605" style="mask-type:luminance" maskUnits="userSpaceOnUse" x="0" y="0" width="22" height="22">
<rect width="21.6" height="21.6" fill="white"/>
</mask>
<g mask="url(#mask0_1144_1605)">
<path fill-rule="evenodd" clip-rule="evenodd" d="M10.8 2.25C6.07797 2.25 2.25001 6.07795 2.25 10.8C2.24999 15.522 6.07793 19.35 10.8 19.35C15.522 19.35 19.35 15.5221 19.35 10.8C19.35 6.07801 15.5221 2.25003 10.8 2.25H10.8Z" fill="#039BE5"/>
<path fill-rule="evenodd" clip-rule="evenodd" d="M11.958 13.0667H14.1706L14.518 10.8189H11.9575V9.59044C11.9575 8.65669 12.2626 7.82869 13.1361 7.82869H14.5396V5.86714C14.293 5.83384 13.7715 5.76094 12.786 5.76094C10.7281 5.76094 9.5217 6.84769 9.5217 9.32359V10.8189H7.40625V13.0667H9.5217V19.2447C9.94065 19.3077 10.365 19.3505 10.8006 19.3505C11.1943 19.3505 11.5786 19.3145 11.958 19.2632V13.0667Z" fill="white"/>
</g>
</svg>
