<svg width="12" height="11" viewBox="0 0 12 11" fill="none" xmlns="http://www.w3.org/2000/svg">
<path d="M7.12596 1.59567L7.92621 3.19617C8.03533 3.41897 8.32633 3.63267 8.57186 3.67359L10.0223 3.91458C10.9499 4.06917 11.1681 4.74211 10.4997 5.40595L9.37211 6.53357C9.18114 6.72454 9.07656 7.09284 9.13567 7.35655L9.4585 8.75244C9.71312 9.85733 9.12658 10.2847 8.149 9.70728L6.78949 8.90249C6.54396 8.75699 6.13929 8.75699 5.88921 8.90249L4.5297 9.70728C3.55667 10.2847 2.96557 9.85278 3.2202 8.75244L3.54303 7.35655C3.60214 7.09284 3.49756 6.72454 3.30659 6.53357L2.17897 5.40595C1.51512 4.74211 1.72883 4.06917 2.65639 3.91458L4.10684 3.67359C4.34782 3.63267 4.63882 3.41897 4.74795 3.19617L5.54819 1.59567C5.98469 0.727223 6.694 0.727223 7.12596 1.59567Z" fill="#F3C32F"/>
</svg>
